<svg xmlns="http://www.w3.org/2000/svg" viewBox="0 0 24 24" width="24" height="24" fill="currentColor">
    <path d="M22.23 0H1.77C.792 0 0 .774 0 1.729v20.542C0 23.227.792 24 1.77 24h20.46c.978 0 1.77-.773 1.77-1.729V1.729C24 .774 23.208 0 22.23 0zM7.12 20.452H3.558V9H7.12v11.452zM5.34 7.434a2.064 2.064 0 110-4.128 2.064 2.064 0 010 4.128zM20.45 20.452h-3.56v-5.57c0-1.328-.026-3.037-1.85-3.037-1.85 0-2.133 1.445-2.133 2.939v5.668H9.345V9h3.418v1.565h.049c.476-.902 1.64-1.85 3.37-1.85 3.606 0 4.269 2.372 4.269 5.456v6.281z"/>
</svg>
